<svg xmlns="http://www.w3.org/2000/svg" xmlns:xlink="http://www.w3.org/1999/xlink" width="500" zoomAndPan="magnify" viewBox="0 0 375 281.25" height="375" preserveAspectRatio="xMidYMid meet" version="1.0"><defs><g/><clipPath id="1d104e368c"><path d="M 30 3.496094 L 167 3.496094 L 167 154 L 30 154 Z M 30 3.496094 " clip-rule="nonzero"/></clipPath><clipPath id="b9bdc9b2a2"><path d="M 89.707031 43.886719 L 85.371094 47.300781 L 85.371094 40.542969 L 89.707031 37.128906 Z M 61.265625 94.585938 L 65.566406 91.175781 L 65.566406 84.417969 L 61.265625 87.832031 Z M 58.0625 90.355469 L 53.65625 93.875 L 53.65625 100.632812 L 58.0625 97.113281 Z M 61.265625 106.285156 L 65.566406 102.871094 L 65.566406 96.117188 L 61.265625 99.53125 Z M 85.371094 58.996094 L 89.707031 55.582031 L 89.707031 48.828125 L 85.371094 52.242188 Z M 53.65625 112.328125 L 58.0625 108.84375 L 58.0625 102.054688 L 53.65625 105.574219 Z M 61.265625 129.714844 L 65.566406 126.304688 L 65.566406 119.546875 L 61.265625 122.960938 Z M 53.65625 135.726562 L 58.0625 132.242188 L 58.0625 125.484375 L 53.65625 128.96875 Z M 46.152344 141.664062 L 50.492188 138.25 L 50.492188 131.492188 L 46.152344 134.90625 Z M 85.371094 70.695312 L 104.785156 55.335938 L 104.785156 48.578125 L 85.371094 63.9375 Z M 46.152344 118.269531 L 50.492188 114.855469 L 50.492188 108.097656 L 46.152344 111.511719 Z M 46.152344 129.964844 L 65.566406 114.570312 L 65.566406 107.8125 L 46.152344 123.210938 Z M 50.492188 96.402344 L 46.152344 99.8125 L 46.152344 106.570312 L 50.492188 103.15625 Z M 92.871094 76.453125 L 97.28125 72.972656 L 97.28125 66.214844 L 92.871094 69.699219 Z M 138.632812 125.839844 C 140.195312 125.769531 141.761719 125.699219 143.324219 125.664062 L 138.632812 121.929688 Z M 138.632812 116.453125 L 150.007812 125.519531 C 155.484375 125.449219 160.890625 125.519531 166.222656 125.699219 L 166.222656 125.378906 L 138.632812 103.441406 Z M 138.632812 97.964844 L 166.222656 119.902344 L 166.222656 106.890625 L 138.632812 84.953125 Z M 166.222656 78.800781 L 166.222656 101.414062 L 138.632812 79.476562 L 138.632812 68.917969 L 110.472656 91.210938 L 110.472656 128.328125 C 106.703125 128.828125 103.042969 129.394531 99.414062 130 L 99.414062 86.945312 L 109.15625 79.191406 L 109.15625 16.542969 L 97.351562 25.894531 L 97.28125 25.894531 L 97.28125 25.964844 L 81.03125 38.871094 L 81.03125 71.546875 L 92.445312 80.648438 L 92.445312 131.28125 C 84.550781 132.84375 77.015625 134.695312 69.9375 136.792969 L 69.9375 75.816406 L 58.136719 85.164062 L 58.0625 85.164062 L 58.0625 85.238281 L 41.816406 98.144531 L 41.816406 147.492188 C 37.832031 149.414062 34.136719 151.441406 30.722656 153.539062 L 30.722656 93.839844 L 69.9375 62.765625 L 69.9375 34.570312 L 109.15625 3.496094 L 149.617188 37.023438 L 149.617188 65.003906 Z M 81.019531 85.464844 C 81.019531 88.171875 78.828125 90.367188 76.121094 90.367188 C 78.828125 90.367188 81.019531 92.5625 81.019531 95.265625 C 81.019531 92.5625 83.214844 90.367188 85.921875 90.367188 C 83.214844 90.367188 81.019531 88.171875 81.019531 85.464844 Z M 118.523438 34.183594 C 121.230469 34.183594 123.421875 36.378906 123.421875 39.082031 C 123.421875 36.378906 125.617188 34.183594 128.324219 34.183594 C 125.617188 34.183594 123.421875 31.988281 123.421875 29.28125 C 123.421875 31.988281 121.230469 34.183594 118.523438 34.183594 Z M 128.324219 59 C 126.5 59 125.019531 57.519531 125.019531 55.695312 C 125.019531 57.519531 123.539062 59 121.714844 59 C 123.539062 59 125.019531 60.480469 125.019531 62.304688 C 125.019531 60.480469 126.5 59 128.324219 59 Z M 141.988281 47.027344 C 138.003906 47.027344 134.769531 43.796875 134.769531 39.808594 C 134.769531 43.796875 131.539062 47.027344 127.550781 47.027344 C 131.539062 47.027344 134.769531 50.261719 134.769531 54.246094 C 134.769531 50.261719 138.003906 47.027344 141.988281 47.027344 Z M 92.871094 53.058594 L 97.28125 49.574219 L 97.28125 42.820312 L 92.871094 46.304688 Z M 104.785156 67.03125 L 104.785156 60.277344 L 100.480469 63.691406 L 100.480469 70.445312 Z M 100.480469 47.015625 L 104.785156 43.601562 L 104.785156 36.847656 L 100.480469 40.257812 Z M 97.28125 31.085938 L 92.871094 34.605469 L 92.871094 41.359375 L 97.28125 37.839844 Z M 104.785156 25.148438 L 100.480469 28.5625 L 100.480469 35.316406 L 104.785156 31.902344 Z M 104.785156 25.148438 " clip-rule="nonzero"/></clipPath><linearGradient x1="365.986901" gradientTransform="matrix(0.136751, 0, 0, 0.136751, -19.326787, 3.495848)" y1="548.599" x2="1356.844924" gradientUnits="userSpaceOnUse" y2="548.599" id="617a3a81e1"><stop stop-opacity="1" stop-color="rgb(16.079712%, 67.059326%, 88.62915%)" offset="0"/><stop stop-opacity="1" stop-color="rgb(15.953064%, 66.880798%, 88.511658%)" offset="0.015625"/><stop stop-opacity="1" stop-color="rgb(15.701294%, 66.525269%, 88.279724%)" offset="0.03125"/><stop stop-opacity="1" stop-color="rgb(15.45105%, 66.169739%, 88.046265%)" offset="0.046875"/><stop stop-opacity="1" stop-color="rgb(15.19928%, 65.814209%, 87.814331%)" offset="0.0625"/><stop stop-opacity="1" stop-color="rgb(14.94751%, 65.458679%, 87.580872%)" offset="0.078125"/><stop stop-opacity="1" stop-color="rgb(14.697266%, 65.103149%, 87.348938%)" offset="0.09375"/><stop stop-opacity="1" stop-color="rgb(14.445496%, 64.74762%, 87.115479%)" offset="0.109375"/><stop stop-opacity="1" stop-color="rgb(14.193726%, 64.39209%, 86.882019%)" offset="0.125"/><stop stop-opacity="1" stop-color="rgb(13.943481%, 64.03656%, 86.650085%)" offset="0.140625"/><stop stop-opacity="1" stop-color="rgb(13.691711%, 63.68103%, 86.416626%)" offset="0.15625"/><stop stop-opacity="1" stop-color="rgb(13.439941%, 63.3255%, 86.184692%)" offset="0.171875"/><stop stop-opacity="1" stop-color="rgb(13.189697%, 62.969971%, 85.951233%)" offset="0.1875"/><stop stop-opacity="1" stop-color="rgb(12.937927%, 62.614441%, 85.719299%)" offset="0.203125"/><stop stop-opacity="1" stop-color="rgb(12.686157%, 62.258911%, 85.48584%)" offset="0.21875"/><stop stop-opacity="1" stop-color="rgb(12.435913%, 61.904907%, 85.25238%)" offset="0.234375"/><stop stop-opacity="1" stop-color="rgb(12.184143%, 61.549377%, 85.020447%)" offset="0.25"/><stop stop-opacity="1" stop-color="rgb(11.932373%, 61.193848%, 84.786987%)" offset="0.265625"/><stop stop-opacity="1" stop-color="rgb(11.682129%, 60.838318%, 84.555054%)" offset="0.28125"/><stop stop-opacity="1" stop-color="rgb(11.430359%, 60.482788%, 84.321594%)" offset="0.296875"/><stop stop-opacity="1" stop-color="rgb(11.178589%, 60.127258%, 84.089661%)" offset="0.3125"/><stop stop-opacity="1" stop-color="rgb(10.928345%, 59.771729%, 83.856201%)" offset="0.328125"/><stop stop-opacity="1" stop-color="rgb(10.676575%, 59.416199%, 83.622742%)" offset="0.34375"/><stop stop-opacity="1" stop-color="rgb(10.426331%, 59.060669%, 83.390808%)" offset="0.359375"/><stop stop-opacity="1" stop-color="rgb(10.174561%, 58.705139%, 83.157349%)" offset="0.375"/><stop stop-opacity="1" stop-color="rgb(9.922791%, 58.349609%, 82.925415%)" offset="0.390625"/><stop stop-opacity="1" stop-color="rgb(9.672546%, 57.99408%, 82.691956%)" offset="0.40625"/><stop stop-opacity="1" stop-color="rgb(9.420776%, 57.63855%, 82.458496%)" offset="0.421875"/><stop stop-opacity="1" stop-color="rgb(9.169006%, 57.28302%, 82.226562%)" offset="0.4375"/><stop stop-opacity="1" stop-color="rgb(8.918762%, 56.92749%, 81.993103%)" offset="0.453125"/><stop stop-opacity="1" stop-color="rgb(8.666992%, 56.57196%, 81.761169%)" offset="0.46875"/><stop stop-opacity="1" stop-color="rgb(8.415222%, 56.216431%, 81.52771%)" offset="0.484375"/><stop stop-opacity="1" stop-color="rgb(8.164978%, 55.860901%, 81.295776%)" offset="0.5"/><stop stop-opacity="1" stop-color="rgb(7.913208%, 55.505371%, 81.062317%)" offset="0.515625"/><stop stop-opacity="1" stop-color="rgb(7.661438%, 55.149841%, 80.828857%)" offset="0.53125"/><stop stop-opacity="1" stop-color="rgb(7.411194%, 54.794312%, 80.596924%)" offset="0.546875"/><stop stop-opacity="1" stop-color="rgb(7.159424%, 54.438782%, 80.363464%)" offset="0.5625"/><stop stop-opacity="1" stop-color="rgb(6.907654%, 54.083252%, 80.131531%)" offset="0.578125"/><stop stop-opacity="1" stop-color="rgb(6.65741%, 53.727722%, 79.898071%)" offset="0.59375"/><stop stop-opacity="1" stop-color="rgb(6.40564%, 53.372192%, 79.666138%)" offset="0.609375"/><stop stop-opacity="1" stop-color="rgb(6.15387%, 53.018188%, 79.432678%)" offset="0.625"/><stop stop-opacity="1" stop-color="rgb(5.903625%, 52.662659%, 79.199219%)" offset="0.640625"/><stop stop-opacity="1" stop-color="rgb(5.651855%, 52.307129%, 78.967285%)" offset="0.65625"/><stop stop-opacity="1" stop-color="rgb(5.400085%, 51.951599%, 78.733826%)" offset="0.671875"/><stop stop-opacity="1" stop-color="rgb(5.149841%, 51.596069%, 78.501892%)" offset="0.6875"/><stop stop-opacity="1" stop-color="rgb(4.898071%, 51.24054%, 78.268433%)" offset="0.703125"/><stop stop-opacity="1" stop-color="rgb(4.646301%, 50.88501%, 78.036499%)" offset="0.71875"/><stop stop-opacity="1" stop-color="rgb(4.396057%, 50.52948%, 77.80304%)" offset="0.734375"/><stop stop-opacity="1" stop-color="rgb(4.144287%, 50.17395%, 77.56958%)" offset="0.75"/><stop stop-opacity="1" stop-color="rgb(3.892517%, 49.81842%, 77.337646%)" offset="0.765625"/><stop stop-opacity="1" stop-color="rgb(3.642273%, 49.462891%, 77.104187%)" offset="0.78125"/><stop stop-opacity="1" stop-color="rgb(3.390503%, 49.107361%, 76.872253%)" offset="0.796875"/><stop stop-opacity="1" stop-color="rgb(3.138733%, 48.751831%, 76.638794%)" offset="0.8125"/><stop stop-opacity="1" stop-color="rgb(2.888489%, 48.396301%, 76.40686%)" offset="0.828125"/><stop stop-opacity="1" stop-color="rgb(2.636719%, 48.040771%, 76.173401%)" offset="0.84375"/><stop stop-opacity="1" stop-color="rgb(2.384949%, 47.685242%, 75.939941%)" offset="0.859375"/><stop stop-opacity="1" stop-color="rgb(2.134705%, 47.329712%, 75.708008%)" offset="0.875"/><stop stop-opacity="1" stop-color="rgb(1.882935%, 46.974182%, 75.474548%)" offset="0.890625"/><stop stop-opacity="1" stop-color="rgb(1.631165%, 46.618652%, 75.242615%)" offset="0.90625"/><stop stop-opacity="1" stop-color="rgb(1.38092%, 46.263123%, 75.009155%)" offset="0.921875"/><stop stop-opacity="1" stop-color="rgb(1.12915%, 45.907593%, 74.775696%)" offset="0.9375"/><stop stop-opacity="1" stop-color="rgb(0.87738%, 45.552063%, 74.543762%)" offset="0.953125"/><stop stop-opacity="1" stop-color="rgb(0.627136%, 45.196533%, 74.310303%)" offset="0.96875"/><stop stop-opacity="1" stop-color="rgb(0.375366%, 44.841003%, 74.078369%)" offset="0.984375"/><stop stop-opacity="1" stop-color="rgb(0.125122%, 44.487%, 73.84491%)" offset="1"/></linearGradient><clipPath id="b3ea234a33"><path d="M 2 125 L 232.542969 125 L 232.542969 249 L 2 249 Z M 2 125 " clip-rule="nonzero"/></clipPath><clipPath id="124e564c90"><path d="M 132.824219 126.144531 C 50.382812 131.335938 -7.546875 165.042969 3.410156 201.460938 C 9.582031 221.964844 36.3125 238.949219 73.191406 248.925781 L 75.730469 240.160156 C 53.496094 230.644531 38.128906 217.871094 33.714844 203.222656 C 23.25 168.386719 78.671875 136.148438 157.535156 131.191406 C 184.035156 129.515625 209.816406 131.160156 232.769531 135.371094 C 204.046875 127.5 169.070312 123.867188 132.824219 126.144531 Z M 132.824219 126.144531 " clip-rule="nonzero"/></clipPath><linearGradient x1="-11108.752914" gradientTransform="matrix(-0.11992, 0.0657253, -0.0657253, -0.11992, -1010.913122, 1447.945981)" y1="5184.02642" x2="-12343.893512" gradientUnits="userSpaceOnUse" y2="3146.750742" id="7b6b3e49f7"><stop stop-opacity="1" stop-color="rgb(16.079712%, 67.059326%, 88.62915%)" offset="0"/><stop stop-opacity="1" stop-color="rgb(16.079712%, 67.059326%, 88.62915%)" offset="0.25"/><stop stop-opacity="1" stop-color="rgb(16.079712%, 67.059326%, 88.62915%)" offset="0.375"/><stop stop-opacity="1" stop-color="rgb(15.940857%, 66.864014%, 88.500977%)" offset="0.382812"/><stop stop-opacity="1" stop-color="rgb(15.652466%, 66.456604%, 88.233948%)" offset="0.386719"/><stop stop-opacity="1" stop-color="rgb(15.50293%, 66.242981%, 88.095093%)" offset="0.390625"/><stop stop-opacity="1" stop-color="rgb(15.351868%, 66.029358%, 87.954712%)" offset="0.394531"/><stop stop-opacity="1" stop-color="rgb(15.200806%, 65.815735%, 87.815857%)" offset="0.398438"/><stop stop-opacity="1" stop-color="rgb(15.049744%, 65.602112%, 87.675476%)" offset="0.402344"/><stop stop-opacity="1" stop-color="rgb(14.898682%, 65.390015%, 87.535095%)" offset="0.40625"/><stop stop-opacity="1" stop-color="rgb(14.74762%, 65.176392%, 87.394714%)" offset="0.410156"/><stop stop-opacity="1" stop-color="rgb(14.598083%, 64.962769%, 87.255859%)" offset="0.414063"/><stop stop-opacity="1" stop-color="rgb(14.447021%, 64.749146%, 87.115479%)" offset="0.417969"/><stop stop-opacity="1" stop-color="rgb(14.295959%, 64.535522%, 86.976624%)" offset="0.421875"/><stop stop-opacity="1" stop-color="rgb(14.144897%, 64.321899%, 86.836243%)" offset="0.425781"/><stop stop-opacity="1" stop-color="rgb(13.993835%, 64.109802%, 86.697388%)" offset="0.429688"/><stop stop-opacity="1" stop-color="rgb(13.842773%, 63.896179%, 86.557007%)" offset="0.433594"/><stop stop-opacity="1" stop-color="rgb(13.693237%, 63.682556%, 86.418152%)" offset="0.4375"/><stop stop-opacity="1" stop-color="rgb(13.542175%, 63.468933%, 86.277771%)" offset="0.441406"/><stop stop-opacity="1" stop-color="rgb(13.391113%, 63.25531%, 86.13739%)" offset="0.445312"/><stop stop-opacity="1" stop-color="rgb(13.240051%, 63.041687%, 85.997009%)" offset="0.449219"/><stop stop-opacity="1" stop-color="rgb(13.088989%, 62.82959%, 85.858154%)" offset="0.453125"/><stop stop-opacity="1" stop-color="rgb(12.937927%, 62.615967%, 85.717773%)" offset="0.457031"/><stop stop-opacity="1" stop-color="rgb(12.786865%, 62.402344%, 85.578918%)" offset="0.460938"/><stop stop-opacity="1" stop-color="rgb(12.635803%, 62.188721%, 85.438538%)" offset="0.464844"/><stop stop-opacity="1" stop-color="rgb(12.486267%, 61.975098%, 85.299683%)" offset="0.46875"/><stop stop-opacity="1" stop-color="rgb(12.335205%, 61.761475%, 85.159302%)" offset="0.472656"/><stop stop-opacity="1" stop-color="rgb(12.184143%, 61.549377%, 85.020447%)" offset="0.476562"/><stop stop-opacity="1" stop-color="rgb(12.033081%, 61.335754%, 84.880066%)" offset="0.480469"/><stop stop-opacity="1" stop-color="rgb(11.882019%, 61.122131%, 84.741211%)" offset="0.484375"/><stop stop-opacity="1" stop-color="rgb(11.730957%, 60.908508%, 84.60083%)" offset="0.488281"/><stop stop-opacity="1" stop-color="rgb(11.581421%, 60.694885%, 84.460449%)" offset="0.492188"/><stop stop-opacity="1" stop-color="rgb(11.430359%, 60.481262%, 84.320068%)" offset="0.496094"/><stop stop-opacity="1" stop-color="rgb(11.279297%, 60.269165%, 84.181213%)" offset="0.5"/><stop stop-opacity="1" stop-color="rgb(11.128235%, 60.055542%, 84.040833%)" offset="0.503906"/><stop stop-opacity="1" stop-color="rgb(10.977173%, 59.841919%, 83.901978%)" offset="0.507813"/><stop stop-opacity="1" stop-color="rgb(10.826111%, 59.628296%, 83.761597%)" offset="0.511719"/><stop stop-opacity="1" stop-color="rgb(10.676575%, 59.414673%, 83.622742%)" offset="0.515625"/><stop stop-opacity="1" stop-color="rgb(10.525513%, 59.20105%, 83.482361%)" offset="0.519531"/><stop stop-opacity="1" stop-color="rgb(10.374451%, 58.988953%, 83.343506%)" offset="0.523438"/><stop stop-opacity="1" stop-color="rgb(10.223389%, 58.77533%, 83.203125%)" offset="0.527344"/><stop stop-opacity="1" stop-color="rgb(10.072327%, 58.561707%, 83.06427%)" offset="0.53125"/><stop stop-opacity="1" stop-color="rgb(9.921265%, 58.348083%, 82.923889%)" offset="0.535156"/><stop stop-opacity="1" stop-color="rgb(9.771729%, 58.13446%, 82.783508%)" offset="0.539062"/><stop stop-opacity="1" stop-color="rgb(9.620667%, 57.920837%, 82.643127%)" offset="0.542969"/><stop stop-opacity="1" stop-color="rgb(9.469604%, 57.70874%, 82.504272%)" offset="0.546875"/><stop stop-opacity="1" stop-color="rgb(9.318542%, 57.495117%, 82.363892%)" offset="0.550781"/><stop stop-opacity="1" stop-color="rgb(9.16748%, 57.281494%, 82.225037%)" offset="0.554688"/><stop stop-opacity="1" stop-color="rgb(9.016418%, 57.067871%, 82.084656%)" offset="0.558594"/><stop stop-opacity="1" stop-color="rgb(8.866882%, 56.854248%, 81.945801%)" offset="0.5625"/><stop stop-opacity="1" stop-color="rgb(8.71582%, 56.640625%, 81.80542%)" offset="0.566406"/><stop stop-opacity="1" stop-color="rgb(8.564758%, 56.428528%, 81.666565%)" offset="0.570312"/><stop stop-opacity="1" stop-color="rgb(8.413696%, 56.214905%, 81.526184%)" offset="0.574219"/><stop stop-opacity="1" stop-color="rgb(8.262634%, 56.001282%, 81.387329%)" offset="0.578125"/><stop stop-opacity="1" stop-color="rgb(8.111572%, 55.787659%, 81.246948%)" offset="0.582031"/><stop stop-opacity="1" stop-color="rgb(7.962036%, 55.574036%, 81.106567%)" offset="0.585938"/><stop stop-opacity="1" stop-color="rgb(7.810974%, 55.360413%, 80.966187%)" offset="0.589844"/><stop stop-opacity="1" stop-color="rgb(7.659912%, 55.148315%, 80.827332%)" offset="0.59375"/><stop stop-opacity="1" stop-color="rgb(7.50885%, 54.934692%, 80.686951%)" offset="0.597656"/><stop stop-opacity="1" stop-color="rgb(7.357788%, 54.721069%, 80.548096%)" offset="0.601563"/><stop stop-opacity="1" stop-color="rgb(7.206726%, 54.507446%, 80.407715%)" offset="0.605469"/><stop stop-opacity="1" stop-color="rgb(7.05719%, 54.293823%, 80.26886%)" offset="0.609375"/><stop stop-opacity="1" stop-color="rgb(6.906128%, 54.0802%, 80.128479%)" offset="0.613281"/><stop stop-opacity="1" stop-color="rgb(6.755066%, 53.868103%, 79.989624%)" offset="0.617188"/><stop stop-opacity="1" stop-color="rgb(6.604004%, 53.65448%, 79.849243%)" offset="0.621094"/><stop stop-opacity="1" stop-color="rgb(6.452942%, 53.440857%, 79.710388%)" offset="0.625"/><stop stop-opacity="1" stop-color="rgb(6.30188%, 53.227234%, 79.570007%)" offset="0.628906"/><stop stop-opacity="1" stop-color="rgb(6.152344%, 53.013611%, 79.429626%)" offset="0.632812"/><stop stop-opacity="1" stop-color="rgb(6.001282%, 52.799988%, 79.289246%)" offset="0.636719"/><stop stop-opacity="1" stop-color="rgb(5.85022%, 52.587891%, 79.150391%)" offset="0.640625"/><stop stop-opacity="1" stop-color="rgb(5.699158%, 52.374268%, 79.01001%)" offset="0.644531"/><stop stop-opacity="1" stop-color="rgb(5.548096%, 52.160645%, 78.871155%)" offset="0.648438"/><stop stop-opacity="1" stop-color="rgb(5.397034%, 51.947021%, 78.730774%)" offset="0.652344"/><stop stop-opacity="1" stop-color="rgb(5.247498%, 51.733398%, 78.591919%)" offset="0.65625"/><stop stop-opacity="1" stop-color="rgb(5.096436%, 51.519775%, 78.451538%)" offset="0.660156"/><stop stop-opacity="1" stop-color="rgb(4.945374%, 51.307678%, 78.312683%)" offset="0.664062"/><stop stop-opacity="1" stop-color="rgb(4.794312%, 51.094055%, 78.172302%)" offset="0.667969"/><stop stop-opacity="1" stop-color="rgb(4.64325%, 50.880432%, 78.033447%)" offset="0.671875"/><stop stop-opacity="1" stop-color="rgb(4.492188%, 50.666809%, 77.893066%)" offset="0.675781"/><stop stop-opacity="1" stop-color="rgb(4.342651%, 50.453186%, 77.752686%)" offset="0.679688"/><stop stop-opacity="1" stop-color="rgb(4.191589%, 50.239563%, 77.612305%)" offset="0.683594"/><stop stop-opacity="1" stop-color="rgb(4.040527%, 50.02594%, 77.47345%)" offset="0.6875"/><stop stop-opacity="1" stop-color="rgb(3.889465%, 49.812317%, 77.333069%)" offset="0.691406"/><stop stop-opacity="1" stop-color="rgb(3.738403%, 49.60022%, 77.194214%)" offset="0.695313"/><stop stop-opacity="1" stop-color="rgb(3.587341%, 49.386597%, 77.053833%)" offset="0.699219"/><stop stop-opacity="1" stop-color="rgb(3.437805%, 49.172974%, 76.914978%)" offset="0.703125"/><stop stop-opacity="1" stop-color="rgb(3.286743%, 48.959351%, 76.774597%)" offset="0.707031"/><stop stop-opacity="1" stop-color="rgb(3.135681%, 48.745728%, 76.635742%)" offset="0.710938"/><stop stop-opacity="1" stop-color="rgb(2.984619%, 48.532104%, 76.495361%)" offset="0.714844"/><stop stop-opacity="1" stop-color="rgb(2.833557%, 48.320007%, 76.356506%)" offset="0.71875"/><stop stop-opacity="1" stop-color="rgb(2.682495%, 48.106384%, 76.216125%)" offset="0.722656"/><stop stop-opacity="1" stop-color="rgb(2.532959%, 47.892761%, 76.075745%)" offset="0.726562"/><stop stop-opacity="1" stop-color="rgb(2.381897%, 47.679138%, 75.935364%)" offset="0.730469"/><stop stop-opacity="1" stop-color="rgb(2.230835%, 47.465515%, 75.796509%)" offset="0.734375"/><stop stop-opacity="1" stop-color="rgb(2.079773%, 47.251892%, 75.656128%)" offset="0.738281"/><stop stop-opacity="1" stop-color="rgb(1.928711%, 47.039795%, 75.517273%)" offset="0.742188"/><stop stop-opacity="1" stop-color="rgb(1.777649%, 46.826172%, 75.376892%)" offset="0.746094"/><stop stop-opacity="1" stop-color="rgb(1.628113%, 46.612549%, 75.238037%)" offset="0.75"/><stop stop-opacity="1" stop-color="rgb(1.477051%, 46.398926%, 75.097656%)" offset="0.753906"/><stop stop-opacity="1" stop-color="rgb(1.325989%, 46.185303%, 74.958801%)" offset="0.757813"/><stop stop-opacity="1" stop-color="rgb(1.174927%, 45.97168%, 74.81842%)" offset="0.761719"/><stop stop-opacity="1" stop-color="rgb(1.023865%, 45.759583%, 74.679565%)" offset="0.765625"/><stop stop-opacity="1" stop-color="rgb(0.872803%, 45.545959%, 74.539185%)" offset="0.769531"/><stop stop-opacity="1" stop-color="rgb(0.721741%, 45.332336%, 74.398804%)" offset="0.773438"/><stop stop-opacity="1" stop-color="rgb(0.570679%, 45.118713%, 74.258423%)" offset="0.777344"/><stop stop-opacity="1" stop-color="rgb(0.421143%, 44.90509%, 74.119568%)" offset="0.78125"/><stop stop-opacity="1" stop-color="rgb(0.270081%, 44.691467%, 73.979187%)" offset="0.785156"/><stop stop-opacity="1" stop-color="rgb(0.119019%, 44.47937%, 73.840332%)" offset="0.789063"/><stop stop-opacity="1" stop-color="rgb(0.0595093%, 44.393921%, 73.783875%)" offset="0.796875"/><stop stop-opacity="1" stop-color="rgb(0%, 44.309998%, 73.728943%)" offset="0.8125"/><stop stop-opacity="1" stop-color="rgb(0%, 44.309998%, 73.728943%)" offset="0.875"/><stop stop-opacity="1" stop-color="rgb(0%, 44.309998%, 73.728943%)" offset="1"/></linearGradient><clipPath id="373d3ef155"><path d="M 68 209 L 146 209 L 146 277 L 68 277 Z M 68 209 " clip-rule="nonzero"/></clipPath><clipPath id="294814c452"><path d="M 91.65625 211.402344 L 92.207031 211.183594 C 94.410156 213.90625 95.140625 217.535156 94.164062 220.898438 L 91.167969 231.210938 C 90.558594 233.308594 90.570312 235.539062 91.203125 237.632812 C 92.308594 241.300781 95.195312 244.160156 98.875 245.230469 L 101.957031 246.125 C 106.453125 247.429688 111.132812 247.75 115.8125 247.710938 C 117.117188 247.699219 118.425781 247.871094 119.714844 248.242188 L 143.378906 255.117188 C 144.929688 255.566406 145.824219 257.191406 145.371094 258.742188 L 143.457031 265.332031 C 143.007812 266.882812 141.382812 267.777344 139.832031 267.324219 L 116.1875 260.457031 C 114.898438 260.082031 113.699219 259.523438 112.605469 258.8125 C 108.667969 256.265625 104.542969 254.027344 100.042969 252.71875 L 96.960938 251.824219 C 93.28125 250.753906 89.308594 251.621094 86.410156 254.128906 C 84.757812 255.554688 83.550781 257.433594 82.941406 259.53125 L 79.945312 269.84375 C 78.96875 273.207031 76.410156 275.878906 73.089844 276.996094 L 72.746094 276.519531 Z M 71.15625 276.171875 L 90.128906 210.847656 C 90.1875 210.648438 90.074219 210.441406 89.875 210.386719 L 88.152344 209.886719 L 87.605469 209.726562 C 87.410156 209.667969 87.203125 209.78125 87.144531 209.980469 L 86.835938 211.046875 L 68.449219 274.347656 L 68.171875 275.304688 C 68.113281 275.5 68.226562 275.707031 68.425781 275.765625 L 68.96875 275.921875 L 70.695312 276.425781 C 70.890625 276.480469 71.097656 276.367188 71.15625 276.171875 Z M 71.15625 276.171875 " clip-rule="nonzero"/></clipPath><linearGradient x1="-6923.486644" gradientTransform="matrix(0.140525, 0.153202, -0.242678, 0.0169707, 1067.385937, 1268.516499)" y1="159.376007" x2="-6477.175948" gradientUnits="userSpaceOnUse" y2="159.376007" id="6932d0fe54"><stop stop-opacity="1" stop-color="rgb(16.079712%, 67.059326%, 88.62915%)" offset="0"/><stop stop-opacity="1" stop-color="rgb(15.968323%, 66.903687%, 88.526917%)" offset="0.03125"/><stop stop-opacity="1" stop-color="rgb(15.72113%, 66.552734%, 88.296509%)" offset="0.046875"/><stop stop-opacity="1" stop-color="rgb(15.444946%, 66.162109%, 88.041687%)" offset="0.0625"/><stop stop-opacity="1" stop-color="rgb(15.168762%, 65.771484%, 87.785339%)" offset="0.078125"/><stop stop-opacity="1" stop-color="rgb(14.892578%, 65.380859%, 87.530518%)" offset="0.09375"/><stop stop-opacity="1" stop-color="rgb(14.61792%, 64.99176%, 87.27417%)" offset="0.109375"/><stop stop-opacity="1" stop-color="rgb(14.341736%, 64.601135%, 87.019348%)" offset="0.125"/><stop stop-opacity="1" stop-color="rgb(14.065552%, 64.21051%, 86.763%)" offset="0.140625"/><stop stop-opacity="1" stop-color="rgb(13.789368%, 63.821411%, 86.508179%)" offset="0.15625"/><stop stop-opacity="1" stop-color="rgb(13.513184%, 63.430786%, 86.251831%)" offset="0.171875"/><stop stop-opacity="1" stop-color="rgb(13.238525%, 63.040161%, 85.997009%)" offset="0.1875"/><stop stop-opacity="1" stop-color="rgb(12.962341%, 62.649536%, 85.740662%)" offset="0.203125"/><stop stop-opacity="1" stop-color="rgb(12.686157%, 62.260437%, 85.48584%)" offset="0.21875"/><stop stop-opacity="1" stop-color="rgb(12.409973%, 61.869812%, 85.229492%)" offset="0.234375"/><stop stop-opacity="1" stop-color="rgb(12.135315%, 61.479187%, 84.97467%)" offset="0.25"/><stop stop-opacity="1" stop-color="rgb(11.859131%, 61.088562%, 84.718323%)" offset="0.265625"/><stop stop-opacity="1" stop-color="rgb(11.582947%, 60.699463%, 84.463501%)" offset="0.28125"/><stop stop-opacity="1" stop-color="rgb(11.306763%, 60.308838%, 84.207153%)" offset="0.296875"/><stop stop-opacity="1" stop-color="rgb(11.032104%, 59.918213%, 83.952332%)" offset="0.3125"/><stop stop-opacity="1" stop-color="rgb(10.75592%, 59.527588%, 83.695984%)" offset="0.328125"/><stop stop-opacity="1" stop-color="rgb(10.479736%, 59.138489%, 83.441162%)" offset="0.34375"/><stop stop-opacity="1" stop-color="rgb(10.203552%, 58.747864%, 83.184814%)" offset="0.359375"/><stop stop-opacity="1" stop-color="rgb(9.928894%, 58.357239%, 82.929993%)" offset="0.375"/><stop stop-opacity="1" stop-color="rgb(9.65271%, 57.966614%, 82.673645%)" offset="0.390625"/><stop stop-opacity="1" stop-color="rgb(9.376526%, 57.577515%, 82.418823%)" offset="0.40625"/><stop stop-opacity="1" stop-color="rgb(9.100342%, 57.18689%, 82.162476%)" offset="0.421875"/><stop stop-opacity="1" stop-color="rgb(8.825684%, 56.796265%, 81.907654%)" offset="0.4375"/><stop stop-opacity="1" stop-color="rgb(8.5495%, 56.40564%, 81.651306%)" offset="0.453125"/><stop stop-opacity="1" stop-color="rgb(8.273315%, 56.016541%, 81.396484%)" offset="0.46875"/><stop stop-opacity="1" stop-color="rgb(7.997131%, 55.625916%, 81.140137%)" offset="0.484375"/><stop stop-opacity="1" stop-color="rgb(7.722473%, 55.235291%, 80.885315%)" offset="0.5"/><stop stop-opacity="1" stop-color="rgb(7.446289%, 54.846191%, 80.628967%)" offset="0.515625"/><stop stop-opacity="1" stop-color="rgb(7.170105%, 54.455566%, 80.374146%)" offset="0.53125"/><stop stop-opacity="1" stop-color="rgb(6.893921%, 54.064941%, 80.117798%)" offset="0.546875"/><stop stop-opacity="1" stop-color="rgb(6.619263%, 53.674316%, 79.862976%)" offset="0.5625"/><stop stop-opacity="1" stop-color="rgb(6.343079%, 53.285217%, 79.606628%)" offset="0.578125"/><stop stop-opacity="1" stop-color="rgb(6.066895%, 52.894592%, 79.351807%)" offset="0.59375"/><stop stop-opacity="1" stop-color="rgb(5.79071%, 52.503967%, 79.095459%)" offset="0.609375"/><stop stop-opacity="1" stop-color="rgb(5.514526%, 52.113342%, 78.840637%)" offset="0.625"/><stop stop-opacity="1" stop-color="rgb(5.239868%, 51.724243%, 78.58429%)" offset="0.640625"/><stop stop-opacity="1" stop-color="rgb(4.963684%, 51.333618%, 78.329468%)" offset="0.65625"/><stop stop-opacity="1" stop-color="rgb(4.6875%, 50.942993%, 78.074646%)" offset="0.671875"/><stop stop-opacity="1" stop-color="rgb(4.411316%, 50.552368%, 77.818298%)" offset="0.6875"/><stop stop-opacity="1" stop-color="rgb(4.136658%, 50.163269%, 77.563477%)" offset="0.703125"/><stop stop-opacity="1" stop-color="rgb(3.860474%, 49.772644%, 77.307129%)" offset="0.71875"/><stop stop-opacity="1" stop-color="rgb(3.58429%, 49.382019%, 77.052307%)" offset="0.734375"/><stop stop-opacity="1" stop-color="rgb(3.308105%, 48.991394%, 76.795959%)" offset="0.75"/><stop stop-opacity="1" stop-color="rgb(3.033447%, 48.602295%, 76.541138%)" offset="0.765625"/><stop stop-opacity="1" stop-color="rgb(2.757263%, 48.21167%, 76.28479%)" offset="0.78125"/><stop stop-opacity="1" stop-color="rgb(2.481079%, 47.821045%, 76.029968%)" offset="0.796875"/><stop stop-opacity="1" stop-color="rgb(2.204895%, 47.431946%, 75.773621%)" offset="0.8125"/><stop stop-opacity="1" stop-color="rgb(1.930237%, 47.041321%, 75.518799%)" offset="0.828125"/><stop stop-opacity="1" stop-color="rgb(1.654053%, 46.650696%, 75.262451%)" offset="0.84375"/><stop stop-opacity="1" stop-color="rgb(1.377869%, 46.260071%, 75.007629%)" offset="0.859375"/><stop stop-opacity="1" stop-color="rgb(1.101685%, 45.870972%, 74.751282%)" offset="0.875"/><stop stop-opacity="1" stop-color="rgb(0.827026%, 45.480347%, 74.49646%)" offset="0.890625"/><stop stop-opacity="1" stop-color="rgb(0.550842%, 45.089722%, 74.240112%)" offset="0.90625"/><stop stop-opacity="1" stop-color="rgb(0.274658%, 44.699097%, 73.985291%)" offset="0.921875"/><stop stop-opacity="1" stop-color="rgb(0.0686646%, 44.407654%, 73.79303%)" offset="0.9375"/><stop stop-opacity="1" stop-color="rgb(0%, 44.309998%, 73.728943%)" offset="1"/></linearGradient><clipPath id="8e8eca4190"><path d="M 76 137 L 374.5 137 L 374.5 226 L 76 226 Z M 76 137 " clip-rule="nonzero"/></clipPath><clipPath id="07fb5e38bc"><rect x="0" width="299" y="0" height="89"/></clipPath><clipPath id="da816231b1"><path d="M 103 211 L 374.5 211 L 374.5 237 L 103 237 Z M 103 211 " clip-rule="nonzero"/></clipPath><clipPath id="1e8f0ab758"><path d="M 0.425781 18 L 1 18 L 1 19 L 0.425781 19 Z M 0.425781 18 " clip-rule="nonzero"/></clipPath><clipPath id="d9a9a73e16"><rect x="0" width="272" y="0" height="26"/></clipPath></defs><g clip-path="url(#1d104e368c)"><g clip-path="url(#b9bdc9b2a2)"><path fill="url(#617a3a81e1)" d="M 30.722656 3.496094 L 30.722656 153.539062 L 166.222656 153.539062 L 166.222656 3.496094 Z M 30.722656 3.496094 " fill-rule="nonzero"/></g></g><g clip-path="url(#b3ea234a33)"><g clip-path="url(#124e564c90)"><path fill="url(#7b6b3e49f7)" d="M 285.25 220.039062 L 178.941406 26.066406 L -52.210938 152.753906 L 54.101562 346.726562 Z M 285.25 220.039062 " fill-rule="nonzero"/></g></g><path fill="#87c71f" d="M 228.578125 137.90625 C 184.242188 131.640625 138.234375 134.066406 95.570312 147.824219 C 68.226562 156.53125 24.042969 182.113281 50.925781 214.515625 C 57.980469 222.890625 67.679688 229.222656 77.304688 234.757812 C 67.140625 229.980469 57.257812 224.046875 49.664062 215.636719 C 20.507812 182.027344 65.511719 154.433594 94.796875 145.511719 C 137.691406 131.832031 184.507812 130.015625 228.578125 137.90625 Z M 228.578125 137.90625 " fill-opacity="1" fill-rule="nonzero"/><path fill="#077bc2" d="M 199.761719 78.515625 C 199.761719 82.703125 196.367188 86.09375 192.183594 86.09375 C 196.367188 86.09375 199.761719 89.484375 199.761719 93.671875 C 199.761719 89.484375 203.152344 86.09375 207.335938 86.09375 C 203.152344 86.09375 199.761719 82.703125 199.761719 78.515625 Z M 199.761719 78.515625 " fill-opacity="1" fill-rule="nonzero"/><path fill="#077bc2" d="M 205.792969 38.253906 C 205.792969 43.09375 201.871094 47.015625 197.03125 47.015625 C 201.871094 47.015625 205.792969 50.9375 205.792969 55.777344 C 205.792969 50.9375 209.714844 47.015625 214.554688 47.015625 C 209.714844 47.015625 205.792969 43.09375 205.792969 38.253906 Z M 205.792969 38.253906 " fill-opacity="1" fill-rule="nonzero"/><path fill="#077bc2" d="M 167.566406 45.484375 C 167.566406 50.324219 163.644531 54.246094 158.804688 54.246094 C 163.644531 54.246094 167.566406 58.167969 167.566406 63.007812 C 167.566406 58.167969 171.488281 54.246094 176.328125 54.246094 C 171.488281 54.246094 167.566406 50.324219 167.566406 45.484375 Z M 167.566406 45.484375 " fill-opacity="1" fill-rule="nonzero"/><path fill="#077bc2" d="M 181.78125 95.410156 C 181.78125 98.367188 179.386719 100.761719 176.433594 100.761719 C 179.386719 100.761719 181.78125 103.15625 181.78125 106.109375 C 181.78125 103.15625 184.175781 100.761719 187.128906 100.761719 C 184.175781 100.761719 181.78125 98.367188 181.78125 95.410156 Z M 181.78125 95.410156 " fill-opacity="1" fill-rule="nonzero"/><path fill="#077bc2" d="M 187.128906 65.953125 C 187.128906 68.433594 185.117188 70.445312 182.636719 70.445312 C 185.117188 70.445312 187.128906 72.457031 187.128906 74.9375 C 187.128906 72.457031 189.140625 70.445312 191.625 70.445312 C 189.140625 70.445312 187.128906 68.433594 187.128906 65.953125 Z M 187.128906 65.953125 " fill-opacity="1" fill-rule="nonzero"/><path fill="#077bc2" d="M 206.867188 106.882812 C 206.867188 109.363281 204.855469 111.375 202.375 111.375 C 204.855469 111.375 206.867188 113.386719 206.867188 115.867188 C 206.867188 113.386719 208.878906 111.375 211.359375 111.375 C 208.878906 111.375 206.867188 109.363281 206.867188 106.882812 Z M 206.867188 106.882812 " fill-opacity="1" fill-rule="nonzero"/><g clip-path="url(#373d3ef155)"><g clip-path="url(#294814c452)"><path fill="url(#6932d0fe54)" d="M 141.140625 204.5625 L 10.082031 213.726562 L 72.796875 282.101562 L 203.855469 272.9375 Z M 141.140625 204.5625 " fill-rule="nonzero"/></g></g><g clip-path="url(#8e8eca4190)"><g transform="matrix(1, 0, 0, 1, 76, 137)"><g clip-path="url(#07fb5e38bc)"><g fill="#000000" fill-opacity="1"><g transform="translate(1.078465, 69.726871)"><g><path d="M 27.84375 0.984375 C 20.476562 0.984375 14.75 -1.019531 10.65625 -5.03125 C 6.570312 -9.039062 4.53125 -14.734375 4.53125 -22.109375 L 4.53125 -49.609375 L 18.5625 -49.609375 L 18.5625 -22.53125 C 18.5625 -14.59375 21.703125 -10.625 27.984375 -10.625 C 34.222656 -10.625 37.34375 -14.59375 37.34375 -22.53125 L 37.34375 -49.609375 L 51.15625 -49.609375 L 51.15625 -22.109375 C 51.15625 -14.734375 49.113281 -9.039062 45.03125 -5.03125 C 40.945312 -1.019531 35.21875 0.984375 27.84375 0.984375 Z M 27.84375 0.984375 "/></g></g></g><g fill="#000000" fill-opacity="1"><g transform="translate(56.776206, 69.726871)"><g><path d="M 29.328125 -39.046875 C 34.109375 -39.046875 37.945312 -37.628906 40.84375 -34.796875 C 43.75 -31.960938 45.203125 -27.6875 45.203125 -21.96875 L 45.203125 0 L 31.75 0 L 31.75 -19.765625 C 31.75 -25.015625 29.644531 -27.640625 25.4375 -27.640625 C 23.125 -27.640625 21.269531 -26.878906 19.875 -25.359375 C 18.476562 -23.847656 17.78125 -21.582031 17.78125 -18.5625 L 17.78125 0 L 4.328125 0 L 4.328125 -38.40625 L 17.140625 -38.40625 L 17.140625 -34.21875 C 18.660156 -35.78125 20.457031 -36.972656 22.53125 -37.796875 C 24.613281 -38.628906 26.878906 -39.046875 29.328125 -39.046875 Z M 29.328125 -39.046875 "/></g></g></g><g fill="#000000" fill-opacity="1"><g transform="translate(106.09635, 69.726871)"><g><path d="M 4.328125 -38.40625 L 17.78125 -38.40625 L 17.78125 0 L 4.328125 0 Z M 11.046875 -42.65625 C 8.597656 -42.65625 6.613281 -43.335938 5.09375 -44.703125 C 3.582031 -46.078125 2.828125 -47.78125 2.828125 -49.8125 C 2.828125 -51.84375 3.582031 -53.539062 5.09375 -54.90625 C 6.613281 -56.28125 8.597656 -56.96875 11.046875 -56.96875 C 13.503906 -56.96875 15.488281 -56.316406 17 -55.015625 C 18.519531 -53.722656 19.28125 -52.0625 19.28125 -50.03125 C 19.28125 -47.90625 18.519531 -46.144531 17 -44.75 C 15.488281 -43.351562 13.503906 -42.65625 11.046875 -42.65625 Z M 11.046875 -42.65625 "/></g></g></g><g fill="#000000" fill-opacity="1"><g transform="translate(128.276248, 69.726871)"><g><path d="M 23.953125 0.640625 C 19.703125 0.640625 15.898438 -0.207031 12.546875 -1.90625 C 9.191406 -3.613281 6.578125 -5.976562 4.703125 -9 C 2.835938 -12.019531 1.90625 -15.445312 1.90625 -19.28125 C 1.90625 -23.101562 2.835938 -26.515625 4.703125 -29.515625 C 6.578125 -32.515625 9.191406 -34.851562 12.546875 -36.53125 C 15.898438 -38.207031 19.703125 -39.046875 23.953125 -39.046875 C 28.296875 -39.046875 32.050781 -38.113281 35.21875 -36.25 C 38.382812 -34.382812 40.628906 -31.796875 41.953125 -28.484375 L 31.53125 -23.171875 C 29.78125 -26.617188 27.226562 -28.34375 23.875 -28.34375 C 21.46875 -28.34375 19.472656 -27.539062 17.890625 -25.9375 C 16.304688 -24.332031 15.515625 -22.113281 15.515625 -19.28125 C 15.515625 -16.394531 16.304688 -14.132812 17.890625 -12.5 C 19.472656 -10.875 21.46875 -10.0625 23.875 -10.0625 C 27.226562 -10.0625 29.78125 -11.785156 31.53125 -15.234375 L 41.953125 -9.921875 C 40.628906 -6.609375 38.382812 -4.019531 35.21875 -2.15625 C 32.050781 -0.289062 28.296875 0.640625 23.953125 0.640625 Z M 23.953125 0.640625 "/></g></g></g><g fill="#000000" fill-opacity="1"><g transform="translate(171.006194, 69.726871)"><g><path d="M 23.59375 0.640625 C 19.488281 0.640625 15.78125 -0.207031 12.46875 -1.90625 C 9.164062 -3.613281 6.578125 -5.976562 4.703125 -9 C 2.835938 -12.019531 1.90625 -15.445312 1.90625 -19.28125 C 1.90625 -23.050781 2.835938 -26.445312 4.703125 -29.46875 C 6.578125 -32.5 9.15625 -34.851562 12.4375 -36.53125 C 15.71875 -38.207031 19.4375 -39.046875 23.59375 -39.046875 C 27.75 -39.046875 31.476562 -38.207031 34.78125 -36.53125 C 38.09375 -34.851562 40.671875 -32.515625 42.515625 -29.515625 C 44.359375 -26.515625 45.28125 -23.101562 45.28125 -19.28125 C 45.28125 -15.445312 44.359375 -12.019531 42.515625 -9 C 40.671875 -5.976562 38.09375 -3.613281 34.78125 -1.90625 C 31.476562 -0.207031 27.75 0.640625 23.59375 0.640625 Z M 23.59375 -10.0625 C 25.957031 -10.0625 27.894531 -10.875 29.40625 -12.5 C 30.914062 -14.132812 31.671875 -16.394531 31.671875 -19.28125 C 31.671875 -22.113281 30.914062 -24.332031 29.40625 -25.9375 C 27.894531 -27.539062 25.957031 -28.34375 23.59375 -28.34375 C 21.226562 -28.34375 19.289062 -27.539062 17.78125 -25.9375 C 16.269531 -24.332031 15.515625 -22.113281 15.515625 -19.28125 C 15.515625 -16.394531 16.269531 -14.132812 17.78125 -12.5 C 19.289062 -10.875 21.226562 -10.0625 23.59375 -10.0625 Z M 23.59375 -10.0625 "/></g></g></g><g fill="#000000" fill-opacity="1"><g transform="translate(218.200458, 69.726871)"><g><path d="M 17.140625 -33.796875 C 18.515625 -35.546875 20.300781 -36.859375 22.5 -37.734375 C 24.695312 -38.609375 27.210938 -39.046875 30.046875 -39.046875 L 30.046875 -26.921875 C 28.816406 -27.066406 27.800781 -27.140625 27 -27.140625 C 24.113281 -27.140625 21.851562 -26.359375 20.21875 -24.796875 C 18.59375 -23.242188 17.78125 -20.859375 17.78125 -17.640625 L 17.78125 0 L 4.328125 0 L 4.328125 -38.40625 L 17.140625 -38.40625 Z M 17.140625 -33.796875 "/></g></g></g><g fill="#000000" fill-opacity="1"><g transform="translate(249.592441, 69.726871)"><g><path d="M 29.328125 -39.046875 C 34.109375 -39.046875 37.945312 -37.628906 40.84375 -34.796875 C 43.75 -31.960938 45.203125 -27.6875 45.203125 -21.96875 L 45.203125 0 L 31.75 0 L 31.75 -19.765625 C 31.75 -25.015625 29.644531 -27.640625 25.4375 -27.640625 C 23.125 -27.640625 21.269531 -26.878906 19.875 -25.359375 C 18.476562 -23.847656 17.78125 -21.582031 17.78125 -18.5625 L 17.78125 0 L 4.328125 0 L 4.328125 -38.40625 L 17.140625 -38.40625 L 17.140625 -34.21875 C 18.660156 -35.78125 20.457031 -36.972656 22.53125 -37.796875 C 24.613281 -38.628906 26.878906 -39.046875 29.328125 -39.046875 Z M 29.328125 -39.046875 "/></g></g></g></g></g></g><g clip-path="url(#da816231b1)"><g transform="matrix(1, 0, 0, 1, 103, 211)"><g clip-path="url(#d9a9a73e16)"><g clip-path="url(#1e8f0ab758)"><g fill="#000000" fill-opacity="1"><g transform="translate(0.745739, 18.677804)"><g/></g></g></g><g fill="#000000" fill-opacity="1"><g transform="translate(11.799394, 18.677804)"><g><path d="M 4.515625 0.28125 C 3.472656 0.28125 2.523438 0.101562 1.671875 -0.25 C 0.828125 -0.613281 0.132812 -1.128906 -0.40625 -1.796875 L 1.78125 -4.390625 C 2.53125 -3.398438 3.347656 -2.90625 4.234375 -2.90625 C 4.804688 -2.90625 5.242188 -3.082031 5.546875 -3.4375 C 5.859375 -3.789062 6.015625 -4.304688 6.015625 -4.984375 L 6.015625 -11.0625 L 1.109375 -11.0625 L 1.109375 -14.15625 L 9.96875 -14.15625 L 9.96875 -5.21875 C 9.96875 -3.382812 9.503906 -2.007812 8.578125 -1.09375 C 7.660156 -0.175781 6.304688 0.28125 4.515625 0.28125 Z M 4.515625 0.28125 "/></g></g></g><g fill="#000000" fill-opacity="1"><g transform="translate(28.231316, 18.677804)"><g><path d="M 10.90625 -2.75 L 4.921875 -2.75 L 3.796875 0 L -0.28125 0 L 5.96875 -14.15625 L 9.921875 -14.15625 L 16.1875 0 L 12.015625 0 Z M 9.734375 -5.703125 L 7.90625 -10.234375 L 6.09375 -5.703125 Z M 9.734375 -5.703125 "/></g></g></g><g fill="#000000" fill-opacity="1"><g transform="translate(49.295893, 18.677804)"><g><path d="M 14.890625 -14.15625 L 14.890625 0 L 11.59375 0 L 5.34375 -7.546875 L 5.34375 0 L 1.421875 0 L 1.421875 -14.15625 L 4.71875 -14.15625 L 10.96875 -6.609375 L 10.96875 -14.15625 Z M 14.890625 -14.15625 "/></g></g></g><g fill="#000000" fill-opacity="1"><g transform="translate(70.76507, 18.677804)"><g><path d="M 1.421875 -14.15625 L 5.421875 -14.15625 L 5.421875 0 L 1.421875 0 Z M 1.421875 -14.15625 "/></g></g></g><g fill="#000000" fill-opacity="1"><g transform="translate(82.78689, 18.677804)"><g><path d="M 4.4375 -10.984375 L 0.078125 -10.984375 L 0.078125 -14.15625 L 12.765625 -14.15625 L 12.765625 -10.984375 L 8.4375 -10.984375 L 8.4375 0 L 4.4375 0 Z M 4.4375 -10.984375 "/></g></g></g><g fill="#000000" fill-opacity="1"><g transform="translate(100.796748, 18.677804)"><g><path d="M 8.5625 0.28125 C 7.0625 0.28125 5.710938 -0.0351562 4.515625 -0.671875 C 3.328125 -1.304688 2.390625 -2.179688 1.703125 -3.296875 C 1.023438 -4.421875 0.6875 -5.679688 0.6875 -7.078125 C 0.6875 -8.484375 1.023438 -9.742188 1.703125 -10.859375 C 2.390625 -11.984375 3.328125 -12.863281 4.515625 -13.5 C 5.710938 -14.132812 7.0625 -14.453125 8.5625 -14.453125 C 10.0625 -14.453125 11.40625 -14.132812 12.59375 -13.5 C 13.789062 -12.863281 14.726562 -11.984375 15.40625 -10.859375 C 16.09375 -9.742188 16.4375 -8.484375 16.4375 -7.078125 C 16.4375 -5.679688 16.09375 -4.421875 15.40625 -3.296875 C 14.726562 -2.179688 13.789062 -1.304688 12.59375 -0.671875 C 11.40625 -0.0351562 10.0625 0.28125 8.5625 0.28125 Z M 8.5625 -3.03125 C 9.269531 -3.03125 9.914062 -3.195312 10.5 -3.53125 C 11.082031 -3.875 11.539062 -4.351562 11.875 -4.96875 C 12.21875 -5.582031 12.390625 -6.285156 12.390625 -7.078125 C 12.390625 -7.878906 12.21875 -8.582031 11.875 -9.1875 C 11.539062 -9.800781 11.082031 -10.273438 10.5 -10.609375 C 9.914062 -10.953125 9.269531 -11.125 8.5625 -11.125 C 7.84375 -11.125 7.191406 -10.953125 6.609375 -10.609375 C 6.035156 -10.273438 5.578125 -9.800781 5.234375 -9.1875 C 4.898438 -8.582031 4.734375 -7.878906 4.734375 -7.078125 C 4.734375 -6.285156 4.898438 -5.582031 5.234375 -4.96875 C 5.578125 -4.351562 6.035156 -3.875 6.609375 -3.53125 C 7.191406 -3.195312 7.84375 -3.03125 8.5625 -3.03125 Z M 8.5625 -3.03125 "/></g></g></g><g fill="#000000" fill-opacity="1"><g transform="translate(123.075126, 18.677804)"><g><path d="M 7.609375 -3.765625 L 5.421875 -3.765625 L 5.421875 0 L 1.421875 0 L 1.421875 -14.15625 L 7.890625 -14.15625 C 9.171875 -14.15625 10.28125 -13.941406 11.21875 -13.515625 C 12.164062 -13.097656 12.894531 -12.492188 13.40625 -11.703125 C 13.925781 -10.910156 14.1875 -9.984375 14.1875 -8.921875 C 14.1875 -7.898438 13.945312 -7.003906 13.46875 -6.234375 C 12.988281 -5.472656 12.300781 -4.878906 11.40625 -4.453125 L 14.46875 0 L 10.171875 0 Z M 10.140625 -8.921875 C 10.140625 -9.585938 9.929688 -10.097656 9.515625 -10.453125 C 9.097656 -10.816406 8.476562 -11 7.65625 -11 L 5.421875 -11 L 5.421875 -6.859375 L 7.65625 -6.859375 C 8.476562 -6.859375 9.097656 -7.035156 9.515625 -7.390625 C 9.929688 -7.753906 10.140625 -8.265625 10.140625 -8.921875 Z M 10.140625 -8.921875 "/></g></g></g><g fill="#000000" fill-opacity="1"><g transform="translate(143.209123, 18.677804)"><g><path d="M 1.421875 -14.15625 L 5.421875 -14.15625 L 5.421875 0 L 1.421875 0 Z M 1.421875 -14.15625 "/></g></g></g><g fill="#000000" fill-opacity="1"><g transform="translate(155.230942, 18.677804)"><g><path d="M 10.90625 -2.75 L 4.921875 -2.75 L 3.796875 0 L -0.28125 0 L 5.96875 -14.15625 L 9.921875 -14.15625 L 16.1875 0 L 12.015625 0 Z M 9.734375 -5.703125 L 7.90625 -10.234375 L 6.09375 -5.703125 Z M 9.734375 -5.703125 "/></g></g></g><g fill="#000000" fill-opacity="1"><g transform="translate(176.295519, 18.677804)"><g><path d="M 1.421875 -14.15625 L 5.421875 -14.15625 L 5.421875 -3.171875 L 12.1875 -3.171875 L 12.1875 0 L 1.421875 0 Z M 1.421875 -14.15625 "/></g></g></g><g fill="#000000" fill-opacity="1"><g transform="translate(193.79964, 18.677804)"><g/></g></g><g fill="#000000" fill-opacity="1"><g transform="translate(204.850415, 18.677804)"><g><path d="M 1.421875 -14.15625 L 5.421875 -14.15625 L 5.421875 -3.171875 L 12.1875 -3.171875 L 12.1875 0 L 1.421875 0 Z M 1.421875 -14.15625 "/></g></g></g><g fill="#000000" fill-opacity="1"><g transform="translate(222.354537, 18.677804)"><g><path d="M 4.4375 -10.984375 L 0.078125 -10.984375 L 0.078125 -14.15625 L 12.765625 -14.15625 L 12.765625 -10.984375 L 8.4375 -10.984375 L 8.4375 0 L 4.4375 0 Z M 4.4375 -10.984375 "/></g></g></g><g fill="#000000" fill-opacity="1"><g transform="translate(240.364395, 18.677804)"><g><path d="M 1.421875 -14.15625 L 8.109375 -14.15625 C 9.660156 -14.15625 11.035156 -13.863281 12.234375 -13.28125 C 13.441406 -12.707031 14.375 -11.890625 15.03125 -10.828125 C 15.695312 -9.765625 16.03125 -8.515625 16.03125 -7.078125 C 16.03125 -5.648438 15.695312 -4.398438 15.03125 -3.328125 C 14.375 -2.265625 13.441406 -1.441406 12.234375 -0.859375 C 11.035156 -0.285156 9.660156 0 8.109375 0 L 1.421875 0 Z M 7.953125 -3.203125 C 9.160156 -3.203125 10.132812 -3.546875 10.875 -4.234375 C 11.613281 -4.921875 11.984375 -5.867188 11.984375 -7.078125 C 11.984375 -8.296875 11.613281 -9.25 10.875 -9.9375 C 10.132812 -10.625 9.160156 -10.96875 7.953125 -10.96875 L 5.421875 -10.96875 L 5.421875 -3.203125 Z M 7.953125 -3.203125 "/></g></g></g><g fill="#000000" fill-opacity="1"><g transform="translate(262.238173, 18.677804)"><g><path d="M 2.859375 0.1875 C 2.203125 0.1875 1.648438 -0.0234375 1.203125 -0.453125 C 0.765625 -0.890625 0.546875 -1.441406 0.546875 -2.109375 C 0.546875 -2.773438 0.765625 -3.316406 1.203125 -3.734375 C 1.640625 -4.160156 2.191406 -4.375 2.859375 -4.375 C 3.523438 -4.375 4.070312 -4.160156 4.5 -3.734375 C 4.9375 -3.316406 5.15625 -2.773438 5.15625 -2.109375 C 5.15625 -1.441406 4.9375 -0.890625 4.5 -0.453125 C 4.0625 -0.0234375 3.515625 0.1875 2.859375 0.1875 Z M 2.859375 0.1875 "/></g></g></g></g></g></g></svg>